<svg width="242" height="68" viewBox="0 0 242 68" fill="none" xmlns="http://www.w3.org/2000/svg">
<path d="M135.248 -34.2163L4.61088 23.457C3.38804 23.9968 2.42974 25.0003 1.94679 26.2468C1.46385 27.4932 1.49583 28.8804 2.03568 30.1032L45.4603 128.465C46.0001 129.688 47.0037 130.646 48.2501 131.129C49.4965 131.612 50.8837 131.58 52.1065 131.04L158.153 84.2233C159.376 83.6834 160.334 82.6799 160.817 81.4335L163.358 61.7246L174.551 45.9868C175.034 44.7405 175.002 43.3533 174.463 42.1304L167.04 8.67824L141.894 -31.6411C141.354 -32.864 140.351 -33.8223 139.104 -34.3052C137.858 -34.7882 136.471 -34.7562 135.248 -34.2163Z" fill="url(#paint0_linear)"/>
<path d="M174.462 42.1302L146.798 54.3434C145.983 54.7033 145.344 55.3723 145.022 56.2032C144.7 57.0342 144.721 57.959 145.081 58.7742L156.616 84.9016L158.153 84.2231C159.376 83.6832 160.334 82.6797 160.817 81.4333L174.551 45.9866C175.034 44.7402 175.002 43.353 174.462 42.1302Z" fill="url(#paint1_linear)"/>
<path d="M206.681 -18.0048C207.904 -18.5446 208.862 -19.5482 209.345 -20.7946C209.828 -22.041 209.796 -23.4282 209.256 -24.651L195.686 -55.3892C195.146 -56.612 194.142 -57.5703 192.896 -58.0533C191.65 -58.5362 190.262 -58.5042 189.04 -57.9644L144.469 -38.2876C143.246 -37.7478 142.288 -36.7442 141.805 -35.4978C141.322 -34.2514 141.354 -32.8642 141.894 -31.6414L185.319 66.7207C185.859 67.9436 186.862 68.9019 188.108 69.3848C189.355 69.8677 190.742 69.8358 191.965 69.2959L236.535 49.6191C237.758 49.0793 238.716 48.0758 239.199 46.8294C239.682 45.5829 239.65 44.1957 239.11 42.9729L225.54 12.2347C225 11.0119 223.997 10.0536 222.75 9.57066C221.504 9.08771 220.117 9.11969 218.894 9.65954C215.225 11.2791 211.064 11.375 207.325 9.9262C203.585 8.47738 200.575 5.60248 198.955 1.93396C197.336 -1.73456 197.24 -5.89619 198.689 -9.63543C200.137 -13.3747 203.012 -16.3852 206.681 -18.0048Z" fill="url(#paint2_linear)"/>
<circle cx="73.743" cy="81.7749" r="13.2301" transform="rotate(-23.8204 73.743 81.7749)" fill="#DCF0F1"/>
<circle cx="106.615" cy="15.8418" r="13.2301" transform="rotate(-23.8204 106.615 15.8418)" fill="#DCF0F1"/>
<rect x="53.5058" y="40.377" width="8.40009" height="76.8608" rx="4.20004" transform="rotate(-68.8204 53.5058 40.377)" fill="#DCF0F1"/>
<defs>
<linearGradient id="paint0_linear" x1="51.0194" y1="132.202" x2="118.612" y2="-42.2452" gradientUnits="userSpaceOnUse">
<stop stop-color="#72C2C8"/>
<stop offset="1" stop-color="#B8E1E3"/>
</linearGradient>
<linearGradient id="paint1_linear" x1="147.984" y1="81.5569" x2="164.722" y2="38.3562" gradientUnits="userSpaceOnUse">
<stop stop-color="#B8E1E3"/>
<stop offset="1" stop-color="#DCF0F1"/>
</linearGradient>
<linearGradient id="paint2_linear" x1="168.724" y1="61.8737" x2="212.281" y2="-50.5421" gradientUnits="userSpaceOnUse">
<stop stop-color="#9D95C8"/>
<stop offset="1" stop-color="#D5D2E7"/>
</linearGradient>
</defs>
</svg>
